<svg width="198" height="61" viewBox="0 0 198 61" fill="none" xmlns="http://www.w3.org/2000/svg">
<path d="M13.3867 20.0456C13.4437 11.4806 13.4437 5.75058 13.4437 5.75058C13.4437 5.75058 13.6297 1.01658 15.0938 0.845581H4.61723C2.0671 0.845581 0 2.91258 0 5.46258V28.1426L5.37327 28.0886C5.37327 28.0886 13.2247 28.7216 13.3867 20.0456Z" fill="#E3E4E6" fill-opacity="0.55"/>
<path d="M13.3867 41.6457C13.4437 50.2107 13.4437 55.9407 13.4437 55.9407C13.4437 55.9407 13.6297 60.6747 15.0938 60.8457H4.61723C2.0671 60.8457 0 58.7787 0 56.2287V33.5487L5.37327 33.6027C5.37327 33.6027 13.2247 32.9697 13.3867 41.6457Z" fill="#E3E4E6" fill-opacity="0.55"/>
<path d="M55.3852 0.845581H25.7167C24.2616 0.923581 20.3974 1.67658 20.4034 7.47558L20.6044 19.5566C20.6044 19.5566 20.9675 24.8756 18.3243 28.0406C17.7183 28.7666 16.6983 29.6216 15.8372 30.0146C14.9762 30.4076 13.6171 30.8366 13.4401 30.8456C13.1911 30.8546 20.7665 32.3576 20.6554 40.9226V55.1636C20.6554 55.1636 21.1505 60.8456 25.8877 60.8456H55.3822C57.9323 60.8456 59.9994 58.7786 59.9994 56.2286V5.46258C59.9994 2.91258 57.9323 0.845581 55.3822 0.845581H55.3852Z" fill="#E3E4E6" fill-opacity="0.55"/>
<path d="M87.6855 40.2031V44H74.8184V40.2031H87.6855ZM76.2773 18.4062V44H71.4434V18.4062H76.2773ZM101.449 22.291L94.1543 44H89.0391L98.6016 18.4062H101.871L101.449 22.291ZM107.549 44L100.219 22.291L99.7793 18.4062H103.066L112.682 44H107.549ZM107.215 34.4902V38.3047H93.4863V34.4902H107.215ZM125.127 32.5918H118.588L118.553 29.1816H124.16C125.121 29.1816 125.924 29.0469 126.568 28.7773C127.213 28.5078 127.699 28.1152 128.027 27.5996C128.367 27.084 128.537 26.457 128.537 25.7188C128.537 24.8984 128.379 24.2305 128.062 23.7148C127.758 23.1992 127.277 22.8242 126.621 22.5898C125.965 22.3438 125.133 22.2207 124.125 22.2207H120.152V44H115.318V18.4062H124.125C125.578 18.4062 126.873 18.5469 128.01 18.8281C129.158 19.0977 130.131 19.5195 130.928 20.0938C131.725 20.668 132.328 21.3887 132.738 22.2559C133.16 23.123 133.371 24.1543 133.371 25.3496C133.371 26.4043 133.125 27.377 132.633 28.2676C132.152 29.1465 131.408 29.8613 130.4 30.4121C129.404 30.9629 128.139 31.2793 126.604 31.3613L125.127 32.5918ZM124.916 44H117.164L119.186 40.2031H124.916C125.877 40.2031 126.668 40.0449 127.289 39.7285C127.922 39.4121 128.391 38.9785 128.695 38.4277C129.012 37.8652 129.17 37.2207 129.17 36.4941C129.17 35.6973 129.029 35.0059 128.748 34.4199C128.479 33.834 128.045 33.3828 127.447 33.0664C126.861 32.75 126.088 32.5918 125.127 32.5918H120.1L120.135 29.1816H126.533L127.641 30.5C129.117 30.5117 130.318 30.8047 131.244 31.3789C132.182 31.9531 132.873 32.6914 133.318 33.5938C133.764 34.4961 133.986 35.4688 133.986 36.5117C133.986 38.1523 133.629 39.5293 132.914 40.6426C132.211 41.7559 131.18 42.5938 129.82 43.1562C128.473 43.7188 126.838 44 124.916 44ZM142.178 32.2227L138.469 31.3262L139.893 18.4062H153.973V22.2559H143.742L143.074 28.2324C143.438 28.0098 143.965 27.7871 144.656 27.5645C145.359 27.3301 146.15 27.2129 147.029 27.2129C148.248 27.2129 149.338 27.4121 150.299 27.8105C151.26 28.1973 152.074 28.7598 152.742 29.498C153.422 30.2363 153.932 31.1387 154.271 32.2051C154.623 33.2598 154.799 34.4551 154.799 35.791C154.799 36.9629 154.623 38.0645 154.271 39.0957C153.932 40.1152 153.41 41.0234 152.707 41.8203C152.004 42.6055 151.119 43.2266 150.053 43.6836C148.986 44.1289 147.732 44.3516 146.291 44.3516C145.201 44.3516 144.152 44.1934 143.145 43.877C142.148 43.5488 141.252 43.0742 140.455 42.4531C139.658 41.8203 139.02 41.0469 138.539 40.1328C138.07 39.2188 137.812 38.1699 137.766 36.9863H142.354C142.436 37.7715 142.646 38.4395 142.986 38.9902C143.326 39.541 143.771 39.9629 144.322 40.2559C144.885 40.5488 145.535 40.6953 146.273 40.6953C146.941 40.6953 147.516 40.5723 147.996 40.3262C148.488 40.0684 148.893 39.7109 149.209 39.2539C149.525 38.7969 149.76 38.2578 149.912 37.6367C150.064 37.0156 150.141 36.3359 150.141 35.5977C150.141 34.8828 150.053 34.2324 149.877 33.6465C149.701 33.0488 149.432 32.5332 149.068 32.0996C148.705 31.666 148.248 31.332 147.697 31.0977C147.158 30.8633 146.525 30.7461 145.799 30.7461C144.826 30.7461 144.076 30.8926 143.549 31.1855C143.033 31.4785 142.576 31.8242 142.178 32.2227ZM170.092 18.3359V44H165.434V23.7676L159.264 25.8066V22.0449L169.564 18.3359H170.092ZM195.65 29.0059V33.3125C195.65 35.2812 195.451 36.9629 195.053 38.3574C194.654 39.752 194.08 40.8945 193.33 41.7852C192.58 42.6641 191.684 43.3145 190.641 43.7363C189.598 44.1465 188.438 44.3516 187.16 44.3516C186.141 44.3516 185.191 44.2227 184.312 43.9648C183.434 43.6953 182.643 43.2852 181.939 42.7344C181.248 42.1719 180.65 41.457 180.146 40.5898C179.654 39.7227 179.273 38.6855 179.004 37.4785C178.746 36.2715 178.617 34.8828 178.617 33.3125V29.0059C178.617 27.0371 178.816 25.3613 179.215 23.9785C179.625 22.5957 180.205 21.4648 180.955 20.5859C181.705 19.707 182.602 19.0684 183.645 18.6699C184.688 18.2598 185.848 18.0547 187.125 18.0547C188.156 18.0547 189.105 18.1836 189.973 18.4414C190.852 18.6992 191.637 19.1035 192.328 19.6543C193.031 20.1934 193.629 20.8965 194.121 21.7637C194.613 22.6191 194.988 23.6504 195.246 24.8574C195.516 26.0527 195.65 27.4355 195.65 29.0059ZM191.01 33.9453V28.3555C191.01 27.3711 190.951 26.5156 190.834 25.7891C190.729 25.0508 190.57 24.4238 190.359 23.9082C190.148 23.3926 189.885 22.9766 189.568 22.6602C189.252 22.332 188.889 22.0918 188.479 21.9395C188.068 21.7871 187.617 21.7109 187.125 21.7109C186.516 21.7109 185.971 21.834 185.49 22.0801C185.01 22.3145 184.605 22.6895 184.277 23.2051C183.949 23.7207 183.697 24.4062 183.521 25.2617C183.357 26.1055 183.275 27.1367 183.275 28.3555V33.9453C183.275 34.9297 183.328 35.791 183.434 36.5293C183.551 37.2676 183.715 37.9004 183.926 38.4277C184.148 38.9551 184.412 39.3887 184.717 39.7285C185.033 40.0566 185.396 40.3027 185.807 40.4668C186.217 40.6191 186.668 40.6953 187.16 40.6953C187.781 40.6953 188.326 40.5723 188.795 40.3262C189.275 40.0801 189.68 39.6934 190.008 39.166C190.336 38.627 190.582 37.9297 190.746 37.0742C190.922 36.207 191.01 35.1641 191.01 33.9453Z" fill="#E3E4E6" fill-opacity="0.55"/>
</svg>
